<svg viewBox="0 0 342 342" fill="none" xmlns="http://www.w3.org/2000/svg">
<path d="M163.066 304.414H30.9852C29.9494 304.414 28.956 304.003 28.2235 303.27C27.4911 302.538 27.0796 301.544 27.0796 300.509V41.4914C27.0886 40.4615 27.5041 39.4769 28.2355 38.7518C28.967 38.0267 29.9553 37.62 30.9852 37.62H163.066C163.579 37.62 164.086 37.721 164.56 37.9173C165.034 38.1136 165.465 38.4013 165.827 38.7639C166.19 39.1266 166.478 39.5572 166.674 40.031C166.87 40.5049 166.971 41.0127 166.971 41.5256V300.509C166.971 301.021 166.87 301.529 166.674 302.003C166.478 302.477 166.19 302.908 165.827 303.27C165.465 303.633 165.034 303.921 164.56 304.117C164.086 304.313 163.579 304.414 163.066 304.414ZM30.9852 37.7568C29.9953 37.7586 29.0464 38.1527 28.3464 38.8526C27.6464 39.5526 27.2524 40.5015 27.2506 41.4914V300.509C27.2524 301.498 27.6464 302.447 28.3464 303.147C29.0464 303.847 29.9953 304.241 30.9852 304.243H163.066C164.056 304.241 165.004 303.847 165.704 303.147C166.404 302.447 166.798 301.498 166.8 300.509V41.4914C166.798 40.5015 166.404 39.5526 165.704 38.8526C165.004 38.1527 164.056 37.7586 163.066 37.7568H30.9852Z" fill="#EBEBEB" fill-opacity="0.5"/>
<path d="M311.015 304.414H178.934C177.899 304.414 176.905 304.003 176.173 303.27C175.44 302.538 175.029 301.544 175.029 300.509V41.4914C175.038 40.4615 175.453 39.4769 176.185 38.7518C176.916 38.0267 177.905 37.62 178.934 37.62H311.015C312.051 37.62 313.044 38.0315 313.777 38.7639C314.509 39.4964 314.92 40.4898 314.92 41.5256V300.509C314.92 301.021 314.819 301.529 314.623 302.003C314.427 302.477 314.139 302.908 313.777 303.27C313.414 303.633 312.983 303.921 312.509 304.117C312.036 304.313 311.528 304.414 311.015 304.414ZM178.934 37.7568C177.945 37.7586 176.996 38.1527 176.296 38.8526C175.596 39.5526 175.202 40.5015 175.2 41.4914V300.509C175.202 301.498 175.596 302.447 176.296 303.147C176.996 303.847 177.945 304.241 178.934 304.243H311.015C312.005 304.241 312.954 303.847 313.654 303.147C314.354 302.447 314.748 301.498 314.749 300.509V41.4914C314.748 40.5015 314.354 39.5526 313.654 38.8526C312.954 38.1527 312.005 37.7586 311.015 37.7568H178.934Z" fill="#EBEBEB" fill-opacity="0.5"/>
<path d="M77.3263 115.083L78.4344 117.32L80.9105 117.682L79.1184 119.426L79.5425 121.889L77.3263 120.726L75.117 121.889L75.5411 119.426L73.749 117.682L76.2251 117.32L77.3263 115.083Z" fill="#EBEBEB"/>
<path d="M298.703 220.576L299.811 222.82L302.287 223.182L300.495 224.92L300.919 227.389L298.703 226.226L296.493 227.389L296.918 224.92L295.125 223.182L297.602 222.82L298.703 220.576Z" fill="#F5F5F5"/>
<path d="M254.858 285.618L255.966 287.855L258.436 288.217L256.644 289.961L257.068 292.424L254.858 291.261L252.649 292.424L253.066 289.961L251.281 288.217L253.75 287.855L254.858 285.618Z" fill="#F5F5F5"/>
<path d="M154.543 75.3426L154.954 76.1771L155.877 76.3139C155.928 76.3206 155.977 76.3419 156.017 76.3752C156.057 76.4086 156.086 76.4525 156.102 76.5021C156.118 76.5516 156.119 76.6046 156.106 76.6548C156.093 76.7051 156.066 76.7505 156.027 76.7858L155.343 77.4356L155.501 78.3522C155.509 78.4032 155.503 78.4555 155.483 78.5032C155.463 78.5509 155.431 78.5923 155.389 78.6227C155.347 78.6531 155.298 78.6714 155.246 78.6756C155.195 78.6798 155.143 78.6696 155.097 78.6463L154.276 78.2086L153.456 78.6463C153.409 78.6696 153.358 78.6798 153.306 78.6756C153.255 78.6714 153.206 78.6531 153.164 78.6227C153.122 78.5923 153.09 78.5509 153.07 78.5032C153.05 78.4555 153.044 78.4032 153.052 78.3522L153.202 77.4356L152.518 76.7858C152.48 76.7501 152.453 76.7041 152.44 76.6533C152.427 76.6025 152.429 76.5491 152.446 76.4994C152.462 76.4497 152.493 76.4058 152.534 76.3729C152.574 76.34 152.624 76.3195 152.676 76.3139L153.592 76.1771L154.003 75.3426C154.019 75.2836 154.054 75.2315 154.103 75.1945C154.152 75.1574 154.212 75.1373 154.273 75.1373C154.334 75.1373 154.394 75.1574 154.443 75.1945C154.491 75.2315 154.527 75.2836 154.543 75.3426Z" fill="#EBEBEB"/>
<path d="M41.5735 274.968L41.9839 275.796L42.9005 275.932C42.9525 275.94 43.0015 275.961 43.0418 275.995C43.0822 276.028 43.1123 276.073 43.1287 276.123C43.1451 276.173 43.1471 276.226 43.1346 276.277C43.1221 276.328 43.0955 276.375 43.0578 276.411L42.3738 277.054L42.5311 277.971C42.5392 278.022 42.5331 278.074 42.5133 278.122C42.4936 278.169 42.4611 278.211 42.4193 278.241C42.3776 278.272 42.3283 278.29 42.2768 278.294C42.2253 278.298 42.1737 278.288 42.1276 278.265L41.3068 277.834L40.486 278.265C40.4399 278.288 40.3883 278.298 40.3368 278.294C40.2853 278.29 40.236 278.272 40.1942 278.241C40.1525 278.211 40.12 278.169 40.1002 278.122C40.0805 278.074 40.0743 278.022 40.0824 277.971L40.2397 277.054L39.5557 276.411C39.5182 276.375 39.4915 276.329 39.4787 276.279C39.4658 276.228 39.4672 276.175 39.4829 276.125C39.4985 276.076 39.5277 276.031 39.5671 275.997C39.6066 275.963 39.6547 275.941 39.7062 275.932L40.6228 275.796L41.04 274.968C41.0583 274.912 41.094 274.862 41.1419 274.828C41.1898 274.793 41.2475 274.774 41.3068 274.774C41.366 274.774 41.4238 274.793 41.4717 274.828C41.5196 274.862 41.5553 274.912 41.5735 274.968Z" fill="#F5F5F5"/>
<path d="M60.0211 66.5532L60.4315 67.3877L61.3549 67.5176C61.4064 67.5259 61.4546 67.5483 61.494 67.5823C61.5335 67.6164 61.5626 67.6608 61.5783 67.7105C61.5939 67.7602 61.5954 67.8133 61.5825 67.8638C61.5696 67.9143 61.5429 67.9603 61.5054 67.9964L60.8214 68.6804L60.9787 69.5902C60.9897 69.6418 60.9854 69.6955 60.9665 69.7448C60.9476 69.7941 60.9149 69.8368 60.8722 69.8679C60.8295 69.899 60.7788 69.9171 60.7261 69.92C60.6734 69.9229 60.621 69.9105 60.5752 69.8843L59.7544 69.4534L58.9336 69.8843C58.8877 69.9105 58.8353 69.9229 58.7826 69.92C58.7299 69.9171 58.6792 69.899 58.6365 69.8679C58.5939 69.8368 58.5611 69.7941 58.5422 69.7448C58.5233 69.6955 58.5191 69.6418 58.53 69.5902L58.6805 68.6804L57.9965 67.9964C57.9588 67.9598 57.9322 67.9133 57.9197 67.8623C57.9072 67.8113 57.9092 67.7578 57.9256 67.7079C57.942 67.658 57.9721 67.6137 58.0124 67.5801C58.0528 67.5464 58.1018 67.5248 58.1538 67.5176L59.0704 67.3877L59.5081 66.5532C59.5301 66.5035 59.566 66.4612 59.6116 66.4316C59.6571 66.4019 59.7103 66.3861 59.7646 66.3861C59.819 66.3861 59.8721 66.4019 59.9177 66.4316C59.9632 66.4612 59.9991 66.5035 60.0211 66.5532Z" fill="#EBEBEB"/>
<path d="M58.9129 231.411C58.9143 231.591 58.8621 231.768 58.7629 231.918C58.6638 232.069 58.5222 232.186 58.3561 232.256C58.19 232.326 58.0069 232.345 57.83 232.311C57.653 232.276 57.4903 232.19 57.3624 232.063C57.2345 231.936 57.1472 231.774 57.1115 231.598C57.0758 231.421 57.0934 231.238 57.1621 231.071C57.2307 230.905 57.3473 230.762 57.4971 230.662C57.6468 230.562 57.823 230.508 58.0032 230.508C58.2433 230.508 58.4736 230.603 58.6441 230.772C58.8145 230.941 58.9111 231.171 58.9129 231.411Z" fill="#EBEBEB"/>
<path d="M188.558 117.573C188.56 117.753 188.507 117.93 188.408 118.08C188.309 118.231 188.167 118.348 188.001 118.418C187.835 118.488 187.652 118.507 187.475 118.473C187.298 118.438 187.136 118.352 187.008 118.225C186.88 118.098 186.792 117.936 186.757 117.76C186.721 117.583 186.739 117.4 186.807 117.233C186.876 117.066 186.993 116.924 187.142 116.824C187.292 116.723 187.468 116.67 187.648 116.67C187.768 116.669 187.886 116.692 187.996 116.737C188.106 116.782 188.207 116.848 188.291 116.932C188.376 117.016 188.443 117.116 188.489 117.226C188.535 117.336 188.558 117.454 188.558 117.573Z" fill="#EBEBEB"/>
<path d="M141.39 67.3056C141.39 67.4855 141.336 67.6614 141.236 67.811C141.136 67.9606 140.994 68.0772 140.828 68.1461C140.662 68.2149 140.479 68.2329 140.303 68.1978C140.126 68.1627 139.964 68.0761 139.837 67.9489C139.71 67.8216 139.623 67.6595 139.588 67.4831C139.553 67.3066 139.571 67.1237 139.64 66.9575C139.708 66.7912 139.825 66.6491 139.975 66.5492C140.124 66.4492 140.3 66.3959 140.48 66.3959C140.721 66.3977 140.951 66.4941 141.121 66.6643C141.292 66.8345 141.388 67.0649 141.39 67.3056Z" fill="#F5F5F5"/>
<path d="M142.83 289.02C145.533 288.382 147.206 285.674 146.568 282.972C145.931 280.27 143.223 278.596 140.521 279.234C137.818 279.872 136.145 282.579 136.783 285.282C137.42 287.984 140.128 289.658 142.83 289.02Z" fill="#F0F0F0"/>
<path d="M139.946 281.186C138.916 281.183 137.913 281.509 137.08 282.116C136.655 283.091 136.551 284.176 136.782 285.214C137.014 286.253 137.569 287.19 138.368 287.893C139.167 288.595 140.168 289.026 141.228 289.122C142.287 289.218 143.35 288.976 144.262 288.429C144.666 287.682 144.869 286.843 144.851 285.993C144.834 285.144 144.595 284.314 144.16 283.585C143.725 282.855 143.108 282.251 142.369 281.832C141.631 281.412 140.796 281.192 139.946 281.192V281.186Z" fill="#E6E6E6"/>
<path d="M101.013 196.746H59.3916V177.956L101.013 128.476H120.931V179.023H131.253V196.746H120.931V212.122H101.013V196.746ZM101.013 179.023V153.141L79.0156 179.023H101.013Z" fill="#616DF4"/>
<path d="M138.373 170.665C138.373 155.029 141.187 144.085 146.814 137.833C152.441 131.581 161.016 128.458 172.539 128.462C178.07 128.462 182.614 129.146 186.171 130.514C189.402 131.678 192.361 133.492 194.865 135.842C196.975 137.857 198.763 140.185 200.166 142.744C201.554 145.416 202.599 148.251 203.278 151.185C204.824 157.451 205.596 163.883 205.576 170.337C205.576 185.257 203.052 196.176 198.004 203.093C192.956 210.011 184.263 213.472 171.923 213.476C165.001 213.476 159.408 212.373 155.145 210.166C150.847 207.923 147.227 204.572 144.659 200.46C142.676 197.432 141.132 193.289 140.028 188.032C138.883 182.315 138.328 176.495 138.373 170.665ZM161.041 170.72C161.041 181.208 161.964 188.36 163.811 192.177C165.658 195.993 168.341 197.911 171.862 197.929C172.979 197.942 174.087 197.732 175.123 197.313C176.159 196.894 177.101 196.273 177.895 195.487C179.6 193.859 180.854 191.287 181.657 187.772C182.459 184.256 182.86 178.784 182.86 171.356C182.86 160.439 181.935 153.1 180.083 149.338C178.232 145.576 175.455 143.697 171.752 143.702C167.977 143.702 165.241 145.619 163.544 149.454C161.848 153.289 161.014 160.378 161.041 170.72Z" fill="#616DF4"/>
<path d="M254.27 196.746H212.649V177.956L254.27 128.476H274.188V179.023H284.544V196.746H274.188V212.122H254.27V196.746ZM254.27 179.023V153.141L232.279 179.023H254.27Z" fill="#616DF4"/>
<g opacity="0.3">
<path d="M137.484 99.6041C137.484 99.8573 137.409 100.105 137.268 100.315C137.127 100.526 136.927 100.69 136.693 100.786C136.459 100.883 136.201 100.908 135.953 100.858C135.704 100.808 135.477 100.686 135.298 100.506C135.119 100.327 134.998 100.098 134.95 99.8494C134.901 99.6008 134.927 99.3434 135.025 99.1098C135.123 98.8762 135.288 98.6769 135.499 98.5372C135.71 98.3975 135.958 98.3236 136.212 98.325C136.379 98.325 136.545 98.3581 136.7 98.4225C136.855 98.4869 136.996 98.5812 137.114 98.7C137.232 98.8189 137.326 98.96 137.389 99.1151C137.453 99.2703 137.485 99.4364 137.484 99.6041Z" fill="#616DF4"/>
<path d="M49.9114 148.736C50.4101 148.736 50.8143 148.332 50.8143 147.833C50.8143 147.334 50.4101 146.93 49.9114 146.93C49.4128 146.93 49.0085 147.334 49.0085 147.833C49.0085 148.332 49.4128 148.736 49.9114 148.736Z" fill="#616DF4"/>
<path d="M199.078 280.591C199.792 280.591 200.371 280.012 200.371 279.298C200.371 278.584 199.792 278.005 199.078 278.005C198.364 278.005 197.785 278.584 197.785 279.298C197.785 280.012 198.364 280.591 199.078 280.591Z" fill="#616DF4"/>
<path d="M230.166 227.991C230.665 227.991 231.069 227.587 231.069 227.088C231.069 226.589 230.665 226.185 230.166 226.185C229.667 226.185 229.263 226.589 229.263 227.088C229.263 227.587 229.667 227.991 230.166 227.991Z" fill="#616DF4"/>
<path d="M290.132 65.4041C290.132 65.5826 290.079 65.7572 289.98 65.9057C289.881 66.0542 289.74 66.1699 289.575 66.2382C289.41 66.3066 289.228 66.3244 289.053 66.2896C288.878 66.2548 288.717 66.1688 288.591 66.0425C288.465 65.9162 288.379 65.7554 288.344 65.5802C288.309 65.4051 288.327 65.2235 288.395 65.0586C288.463 64.8936 288.579 64.7526 288.728 64.6534C288.876 64.5541 289.051 64.5012 289.229 64.5012C289.469 64.5012 289.698 64.5963 289.868 64.7656C290.037 64.935 290.132 65.1646 290.132 65.4041Z" fill="#616DF4"/>
<path d="M118.161 47.196C118.161 47.3746 118.108 47.5491 118.009 47.6976C117.91 47.8461 117.769 47.9618 117.604 48.0302C117.439 48.0985 117.257 48.1164 117.082 48.0815C116.907 48.0467 116.746 47.9607 116.62 47.8344C116.493 47.7082 116.407 47.5473 116.373 47.3721C116.338 47.197 116.356 47.0155 116.424 46.8505C116.492 46.6855 116.608 46.5445 116.756 46.4453C116.905 46.3461 117.08 46.2931 117.258 46.2931C117.497 46.2949 117.726 46.3906 117.895 46.5595C118.063 46.7285 118.159 46.9571 118.161 47.196Z" fill="#616DF4"/>
<path d="M189.947 94.5698C190.445 94.5698 190.85 94.1656 190.85 93.667C190.85 93.1683 190.445 92.7641 189.947 92.7641C189.448 92.7641 189.044 93.1683 189.044 93.667C189.044 94.1656 189.448 94.5698 189.947 94.5698Z" fill="#616DF4"/>
</g>
<path d="M96.6012 94.5767C104.878 94.5767 111.588 87.867 111.588 79.5902C111.588 71.3134 104.878 64.6038 96.6012 64.6038C88.3244 64.6038 81.6147 71.3134 81.6147 79.5902C81.6147 87.867 88.3244 94.5767 96.6012 94.5767Z" fill="#616DF4"/>
<path opacity="0.7" d="M96.6012 94.5767C104.878 94.5767 111.588 87.867 111.588 79.5902C111.588 71.3134 104.878 64.6038 96.6012 64.6038C88.3244 64.6038 81.6147 71.3134 81.6147 79.5902C81.6147 87.867 88.3244 94.5767 96.6012 94.5767Z" fill="white"/>
<path opacity="0.2" d="M91.4372 68.2837C89.3962 68.2775 87.3756 68.6895 85.5001 69.4944C83.195 72.0279 81.8268 75.2742 81.6232 78.6933C81.4196 82.1125 82.3928 85.4982 84.3809 88.2874C86.3691 91.0765 89.2522 93.1008 92.5508 94.0236C95.8493 94.9463 99.3644 94.7119 102.511 93.3592C104.462 91.2091 105.747 88.5388 106.209 85.6726C106.672 82.8064 106.292 79.8676 105.117 77.2129C103.941 74.5583 102.02 72.302 99.5871 70.7182C97.1539 69.1343 94.3131 68.291 91.4098 68.2906L91.4372 68.2837Z" fill="#616DF4"/>
<path opacity="0.2" d="M89.946 72.2441C89.946 72.5146 89.8657 72.7791 89.7154 73.0041C89.5651 73.2291 89.3514 73.4044 89.1015 73.5079C88.8515 73.6115 88.5764 73.6386 88.3111 73.5858C88.0457 73.533 87.802 73.4027 87.6106 73.2114C87.4193 73.0201 87.289 72.7763 87.2362 72.5109C87.1835 72.2456 87.2106 71.9705 87.3141 71.7206C87.4176 71.4706 87.593 71.2569 87.8179 71.1066C88.0429 70.9563 88.3074 70.8761 88.578 70.8761C88.9408 70.8761 89.2887 71.0202 89.5453 71.2767C89.8018 71.5333 89.946 71.8813 89.946 72.2441Z" fill="#616DF4"/>
<path opacity="0.2" d="M106.061 70.8761C106.061 71.1467 105.981 71.4111 105.83 71.6361C105.68 71.8611 105.466 72.0364 105.216 72.14C104.966 72.2435 104.691 72.2706 104.426 72.2178C104.161 72.165 103.917 72.0347 103.726 71.8434C103.534 71.6521 103.404 71.4083 103.351 71.143C103.298 70.8776 103.326 70.6025 103.429 70.3526C103.533 70.1026 103.708 69.889 103.933 69.7386C104.158 69.5883 104.422 69.5081 104.693 69.5081C105.056 69.5081 105.404 69.6522 105.66 69.9088C105.917 70.1653 106.061 70.5133 106.061 70.8761Z" fill="#616DF4"/>
<path opacity="0.2" d="M103.325 80.6436C103.325 81.0873 103.193 81.5211 102.947 81.89C102.7 82.259 102.35 82.5465 101.94 82.7163C101.53 82.8862 101.079 82.9306 100.644 82.844C100.209 82.7574 99.8088 82.5438 99.495 82.23C99.1812 81.9162 98.9676 81.5165 98.881 81.0813C98.7944 80.6461 98.8389 80.195 99.0087 79.785C99.1785 79.3751 99.466 79.0247 99.835 78.7782C100.204 78.5317 100.638 78.4001 101.081 78.4001C101.676 78.4001 102.247 78.6365 102.668 79.0572C103.089 79.4779 103.325 80.0486 103.325 80.6436Z" fill="#616DF4"/>
<path opacity="0.2" d="M96.1977 87.039C96.1977 87.6315 96.0219 88.2108 95.6928 88.7035C95.3636 89.1961 94.8957 89.5801 94.3482 89.8069C93.8008 90.0336 93.1984 90.093 92.6173 89.9774C92.0361 89.8618 91.5023 89.5764 91.0833 89.1574C90.6643 88.7385 90.379 88.2046 90.2634 87.6235C90.1478 87.0423 90.2071 86.44 90.4339 85.8925C90.6606 85.3451 91.0446 84.8772 91.5373 84.548C92.03 84.2188 92.6092 84.0431 93.2017 84.0431C93.9963 84.0431 94.7583 84.3587 95.3202 84.9206C95.882 85.4824 96.1977 86.2444 96.1977 87.039Z" fill="#616DF4"/>
<path d="M274.215 260.362C275.884 253.292 271.505 246.208 264.435 244.539C257.365 242.87 250.281 247.249 248.612 254.319C246.944 261.389 251.322 268.473 258.392 270.142C265.463 271.811 272.547 267.432 274.215 260.362Z" fill="#616DF4"/>
<path opacity="0.3" d="M274.215 260.362C275.884 253.292 271.505 246.208 264.435 244.539C257.365 242.87 250.281 247.249 248.612 254.319C246.944 261.389 251.322 268.473 258.392 270.142C265.463 271.811 272.547 267.432 274.215 260.362Z" fill="white"/>
<path opacity="0.4" d="M269.722 247.157C266.806 246.277 263.675 246.436 260.864 247.608C258.053 248.78 255.736 250.892 254.309 253.583C252.882 256.274 252.433 259.377 253.04 262.361C253.647 265.346 255.271 268.027 257.636 269.947C258.862 270.32 260.136 270.509 261.418 270.508C264.133 270.508 266.782 269.667 269.001 268.101C271.219 266.535 272.898 264.32 273.808 261.762C274.718 259.203 274.814 256.426 274.082 253.811C273.35 251.196 271.827 248.871 269.722 247.157Z" fill="#616DF4"/>
<path d="M248.86 261.288C234.817 267.895 245.289 272.991 265.077 265.878C283.402 259.291 290.385 250.987 273.969 253.566C274.852 257.02 251.903 265.96 248.86 261.288Z" fill="#616DF4"/>
<path opacity="0.2" d="M269.564 128.476C251.172 140.904 227.362 157.32 220.788 196.746H219.386C225.782 157.758 248.723 140.952 267.123 128.476H269.564Z" fill="black"/>
<path d="M174.42 251.897C162.792 251.897 151.294 246.65 145.692 238.087C142.238 232.793 138.223 221.705 150.179 206.91L151.239 207.772C142.785 218.237 141.226 228.736 146.841 237.341C153.681 247.806 169.817 253.073 183.593 249.325C197.703 245.488 206.267 233.217 207.095 215.658C209.92 155.596 241.828 137.094 265.125 123.585C279.606 115.192 290.064 109.132 287.766 96.3346C287.444 94.563 286.74 93.3387 285.597 92.5863C282.622 90.6232 276.808 91.9843 270.077 93.5507C256.869 96.6287 238.784 100.842 228.011 82.5178L229.195 81.8338C239.455 99.2963 256.261 95.377 269.77 92.2306C276.808 90.5958 282.882 89.1799 286.35 91.4577C287.82 92.4221 288.723 93.9474 289.086 96.1088C291.555 109.844 280.194 116.437 265.796 124.782C242.765 138.134 211.233 156.417 208.442 215.754C207.58 233.949 198.647 246.678 183.928 250.679C180.827 251.505 177.629 251.914 174.42 251.897Z" fill="#616DF4"/>
<path opacity="0.2" d="M174.42 251.897C162.792 251.897 151.294 246.65 145.692 238.087C142.238 232.793 138.223 221.705 150.179 206.91L151.239 207.772C142.785 218.237 141.226 228.736 146.841 237.341C153.681 247.806 169.817 253.073 183.593 249.325C197.703 245.488 206.267 233.217 207.095 215.658C209.92 155.596 241.828 137.094 265.125 123.585C279.606 115.192 290.064 109.132 287.766 96.3346C287.444 94.563 286.74 93.3387 285.597 92.5863C282.622 90.6232 276.808 91.9843 270.077 93.5507C256.869 96.6287 238.784 100.842 228.011 82.5178L229.195 81.8338C239.455 99.2963 256.261 95.377 269.77 92.2306C276.808 90.5958 282.882 89.1799 286.35 91.4577C287.82 92.4221 288.723 93.9474 289.086 96.1088C291.555 109.844 280.194 116.437 265.796 124.782C242.765 138.134 211.233 156.417 208.442 215.754C207.58 233.949 198.647 246.678 183.928 250.679C180.827 251.505 177.629 251.914 174.42 251.897Z" fill="white"/>
<path d="M213.928 66.348C217.08 66.3662 220.211 66.8573 223.217 67.8049C223.217 67.8049 230.741 80.6436 231.63 83.5848C231.315 86.485 226.425 91.2388 226.425 91.2388L213.928 66.348Z" fill="#616DF4"/>
<path opacity="0.3" d="M213.928 66.348C217.08 66.3662 220.211 66.8573 223.217 67.8049C223.217 67.8049 230.741 80.6436 231.63 83.5848C231.315 86.485 226.425 91.2388 226.425 91.2388L213.928 66.348Z" fill="white"/>
<path d="M236.213 128.681C233.315 125.138 230.673 121.394 228.306 117.477C227.731 116.487 227.186 115.48 226.671 114.454C226.377 113.872 226.096 113.291 225.823 112.703C225.464 112.13 225.185 111.511 224.995 110.863C224.174 102.196 227.143 95.8147 224.311 88.8585L213.039 93.2634C213.039 93.2634 213.996 105.658 216.185 113.099C217.553 117.703 220.618 121.684 223.579 125.37C224.503 126.519 225.392 127.703 226.315 128.859C227.239 130.015 228.169 130.952 229.051 132.039C230.385 133.688 230.823 135.268 229.817 137.21L229.646 137.518C229.359 138.024 230.7 138.599 231.548 137.518C232.916 135.754 232.724 135.863 233.915 134.358C234.64 133.448 235.467 132.457 236.185 131.622C236.532 131.212 236.724 130.693 236.729 130.156C236.734 129.619 236.551 129.098 236.213 128.681Z" fill="#616DF4"/>
<path opacity="0.7" d="M236.213 128.681C233.315 125.138 230.673 121.394 228.306 117.477C227.731 116.487 227.186 115.48 226.671 114.454C226.377 113.872 226.096 113.291 225.823 112.703C225.464 112.13 225.185 111.511 224.995 110.863C224.174 102.196 227.143 95.8147 224.311 88.8585L213.039 93.2634C213.039 93.2634 213.996 105.658 216.185 113.099C217.553 117.703 220.618 121.684 223.579 125.37C224.503 126.519 225.392 127.703 226.315 128.859C227.239 130.015 228.169 130.952 229.051 132.039C230.385 133.688 230.823 135.268 229.817 137.21L229.646 137.518C229.359 138.024 230.7 138.599 231.548 137.518C232.916 135.754 232.724 135.863 233.915 134.358C234.64 133.448 235.467 132.457 236.185 131.622C236.532 131.212 236.724 130.693 236.729 130.156C236.734 129.619 236.551 129.098 236.213 128.681Z" fill="white"/>
<path opacity="0.3" d="M233.456 125.117C231.667 127.035 229.682 128.759 227.533 130.261C227.827 130.589 228.114 130.945 228.408 131.26C230.56 129.806 232.514 128.079 234.222 126.123L233.456 125.117Z" fill="#616DF4"/>
<path opacity="0.3" d="M236.213 128.681L236.131 128.585C235.604 129.189 235.298 129.953 235.262 130.753C235.218 131.302 235.307 131.854 235.522 132.361L236.172 131.588C236.511 131.182 236.701 130.671 236.708 130.142C236.716 129.612 236.541 129.097 236.213 128.681Z" fill="#616DF4"/>
<path d="M211.247 74.556C210.025 76.3858 208.559 78.0403 206.89 79.474C205.964 80.2717 204.949 80.9603 203.866 81.526C203.297 81.8176 202.707 82.0667 202.102 82.2715L201.636 82.422L201.486 82.463L201.164 82.552C200.966 82.5989 200.765 82.6309 200.563 82.6477C199.985 82.6918 199.405 82.6387 198.846 82.4904C198.14 82.2902 197.464 81.9981 196.835 81.6217C196.328 81.3257 195.837 81.0038 195.364 80.6573C194.509 80.0212 193.691 79.336 192.915 78.6053C191.419 77.1876 190.046 75.6454 188.811 73.9951C188.574 73.6736 188.455 73.2792 188.477 72.8799C188.499 72.4807 188.66 72.1016 188.932 71.8081C189.203 71.5146 189.569 71.3251 189.965 71.2723C190.362 71.2196 190.764 71.3068 191.103 71.519H191.158C192.772 72.545 194.4 73.6258 195.987 74.5902C196.794 75.0622 197.573 75.541 198.346 75.9103C198.699 76.0951 199.062 76.2595 199.434 76.4028C199.665 76.505 199.913 76.5652 200.166 76.5806C200.207 76.5806 200.166 76.5328 199.913 76.5396C199.833 76.5348 199.753 76.5348 199.673 76.5396L199.523 76.5738L199.749 76.4575C200.053 76.294 200.347 76.1136 200.631 75.9172C201.243 75.4856 201.815 75.0003 202.341 74.4671C203.536 73.2148 204.655 71.8923 205.693 70.5067C206.261 69.8708 207.046 69.4702 207.895 69.3835C208.744 69.2969 209.594 69.5304 210.279 70.0384C210.964 70.5463 211.435 71.2919 211.599 72.129C211.763 72.966 211.608 73.8341 211.165 74.5628L211.247 74.556Z" fill="#616DF4"/>
<path opacity="0.7" d="M211.247 74.556C210.025 76.3858 208.559 78.0403 206.89 79.474C205.964 80.2717 204.949 80.9603 203.866 81.526C203.297 81.8176 202.707 82.0667 202.102 82.2715L201.636 82.422L201.486 82.463L201.164 82.552C200.966 82.5989 200.765 82.6309 200.563 82.6477C199.985 82.6918 199.405 82.6387 198.846 82.4904C198.14 82.2902 197.464 81.9981 196.835 81.6217C196.328 81.3257 195.837 81.0038 195.364 80.6573C194.509 80.0212 193.691 79.336 192.915 78.6053C191.419 77.1876 190.046 75.6454 188.811 73.9951C188.574 73.6736 188.455 73.2792 188.477 72.8799C188.499 72.4807 188.66 72.1016 188.932 71.8081C189.203 71.5146 189.569 71.3251 189.965 71.2723C190.362 71.2196 190.764 71.3068 191.103 71.519H191.158C192.772 72.545 194.4 73.6258 195.987 74.5902C196.794 75.0622 197.573 75.541 198.346 75.9103C198.699 76.0951 199.062 76.2595 199.434 76.4028C199.665 76.505 199.913 76.5652 200.166 76.5806C200.207 76.5806 200.166 76.5328 199.913 76.5396C199.833 76.5348 199.753 76.5348 199.673 76.5396L199.523 76.5738L199.749 76.4575C200.053 76.294 200.347 76.1136 200.631 75.9172C201.243 75.4856 201.815 75.0003 202.341 74.4671C203.536 73.2148 204.655 71.8923 205.693 70.5067C206.261 69.8708 207.046 69.4702 207.895 69.3835C208.744 69.2969 209.594 69.5304 210.279 70.0384C210.964 70.5463 211.435 71.2919 211.599 72.129C211.763 72.966 211.608 73.8341 211.165 74.5628L211.247 74.556Z" fill="white"/>
<path d="M186.246 70.0553L187.047 71.4233C187.047 71.4233 187.655 73.2154 188.88 73.5437L192.204 72.4698L192.033 72.1894C191.609 71.5464 191.657 70.2947 191.8 69.255C191.944 68.2153 191.411 68.1811 191.014 68.441C190.733 68.7644 190.535 69.152 190.439 69.5696C190.276 69.3438 190.095 69.1311 189.899 68.9335L188.887 67.9212C188.674 67.7136 188.391 67.594 188.094 67.5864C187.798 67.5788 187.509 67.6837 187.286 67.8802L186.465 68.612C186.271 68.7921 186.143 69.0331 186.103 69.2953C186.063 69.5576 186.114 69.8255 186.246 70.0553Z" fill="#616DF4"/>
<path opacity="0.7" d="M186.246 70.0553L187.047 71.4233C187.047 71.4233 187.655 73.2154 188.88 73.5437L192.204 72.4698L192.033 72.1894C191.609 71.5464 191.657 70.2947 191.8 69.255C191.944 68.2153 191.411 68.1811 191.014 68.441C190.733 68.7644 190.535 69.152 190.439 69.5696C190.276 69.3438 190.095 69.1311 189.899 68.9335L188.887 67.9212C188.674 67.7136 188.391 67.594 188.094 67.5864C187.798 67.5788 187.509 67.6837 187.286 67.8802L186.465 68.612C186.271 68.7921 186.143 69.0331 186.103 69.2953C186.063 69.5576 186.114 69.8255 186.246 70.0553Z" fill="white"/>
<path d="M217.286 65.1305C213.599 66.1078 210.067 67.5975 206.794 69.556C206.283 69.8756 205.882 70.3436 205.645 70.8974C205.408 71.4512 205.346 72.0643 205.467 72.6545C206.787 79.1114 209.79 87.7572 213.032 93.2634L228.155 87.0048C228.258 84.3372 224.585 75.7051 220.843 67.3603C220.173 65.8624 218.88 64.7474 217.286 65.1305Z" fill="#616DF4"/>
<path opacity="0.8" d="M217.286 65.1305C213.599 66.1078 210.067 67.5975 206.794 69.556C206.283 69.8756 205.882 70.3436 205.645 70.8974C205.408 71.4512 205.346 72.0643 205.467 72.6545C206.787 79.1114 209.79 87.7572 213.032 93.2634L228.155 87.0048C228.258 84.3372 224.585 75.7051 220.843 67.3603C220.173 65.8624 218.88 64.7474 217.286 65.1305Z" fill="white"/>
<path opacity="0.3" d="M223.189 72.6476L220.187 71.6422C220.871 73.4 223.285 75.623 224.975 76.9295C224.427 75.5615 223.819 74.1251 223.189 72.6476Z" fill="#616DF4"/>
<path d="M216.295 58.3589C215.043 55.9786 212.341 54.7816 209.099 55.0483C206.363 55.2809 203.942 58.0716 204.229 59.5764C204.516 61.0812 206.814 61.7242 207.252 62.244L205.357 63.612C205.133 63.774 204.944 63.9798 204.801 64.2169C204.658 64.4539 204.564 64.7175 204.526 64.9916C204.488 65.2658 204.505 65.5448 204.578 65.812C204.65 66.0792 204.776 66.329 204.947 66.5464C205.747 67.5587 206.801 68.5984 207.409 69.3645C212.649 69.2277 216.527 67.2304 217.929 65.3083C217.403 62.8733 217.512 60.7255 216.295 58.3589Z" fill="#616DF4"/>
<path opacity="0.8" d="M216.295 58.3589C215.043 55.9786 212.341 54.7816 209.099 55.0483C206.363 55.2809 203.942 58.0716 204.229 59.5764C204.516 61.0812 206.814 61.7242 207.252 62.244L205.357 63.612C205.133 63.774 204.944 63.9798 204.801 64.2169C204.658 64.4539 204.564 64.7175 204.526 64.9916C204.488 65.2658 204.505 65.5448 204.578 65.812C204.65 66.0792 204.776 66.329 204.947 66.5464C205.747 67.5587 206.801 68.5984 207.409 69.3645C212.649 69.2277 216.527 67.2304 217.929 65.3083C217.403 62.8733 217.512 60.7255 216.295 58.3589Z" fill="white"/>
<path d="M213.723 59.8363C214.095 60.7902 214.175 61.833 213.955 62.8328C213.734 63.8327 213.222 64.7446 212.483 65.4535C211.745 66.1624 210.812 66.6363 209.804 66.8154C208.796 66.9945 207.758 66.8707 206.82 66.4596C205.882 66.0486 205.087 65.3688 204.536 64.5061C203.984 63.6434 203.701 62.6366 203.722 61.613C203.742 60.5893 204.066 59.5948 204.652 58.755C205.238 57.9153 206.059 57.268 207.013 56.8951C208.293 56.3965 209.718 56.4262 210.976 56.9776C212.234 57.5291 213.222 58.5572 213.723 59.8363Z" fill="#263238"/>
<path d="M258.135 121.478C258.06 119.228 257.957 119.426 257.895 117.532C257.854 116.369 257.848 115.076 257.841 113.961C257.838 113.432 257.653 112.919 257.317 112.511C256.98 112.102 256.513 111.822 255.994 111.718C255.091 111.533 254.181 111.362 253.258 111.171C252.075 110.917 250.905 110.644 249.749 110.309C248.846 110.049 247.957 109.762 247.075 109.44C246.192 109.119 245.2 108.756 244.284 108.332C243.203 107.874 242.136 107.381 241.083 106.868C239.899 106.307 238.73 105.719 237.56 105.124C233.059 97.6752 232.964 92.7641 228.135 87.0048L217.765 91.6971C217.765 91.6971 225.385 105.213 230.57 110.945C233.559 114.242 238.244 115.733 242.423 116.814C245.44 117.586 248.497 118.182 251.555 118.749C252.745 118.968 254.038 119.05 255.064 119.762C255.823 120.344 256.343 121.183 256.527 122.121C256.573 122.313 256.614 122.504 256.651 122.696C256.781 123.271 258.183 122.833 258.135 121.478Z" fill="#616DF4"/>
<path opacity="0.8" d="M258.135 121.478C258.06 119.228 257.957 119.426 257.895 117.532C257.854 116.369 257.848 115.076 257.841 113.961C257.838 113.432 257.653 112.919 257.317 112.511C256.98 112.102 256.513 111.822 255.994 111.718C255.091 111.533 254.181 111.362 253.258 111.171C252.075 110.917 250.905 110.644 249.749 110.309C248.846 110.049 247.957 109.762 247.075 109.44C246.192 109.119 245.2 108.756 244.284 108.332C243.203 107.874 242.136 107.381 241.083 106.868C239.899 106.307 238.73 105.719 237.56 105.124C233.059 97.6752 232.964 92.7641 228.135 87.0048L217.765 91.6971C217.765 91.6971 225.385 105.213 230.57 110.945C233.559 114.242 238.244 115.733 242.423 116.814C245.44 117.586 248.497 118.182 251.555 118.749C252.745 118.968 254.038 119.05 255.064 119.762C255.823 120.344 256.343 121.183 256.527 122.121C256.573 122.313 256.614 122.504 256.651 122.696C256.781 123.271 258.183 122.833 258.135 121.478Z" fill="white"/>
<path opacity="0.3" d="M252.875 111.082C252.465 110.993 252.054 110.904 251.637 110.801C251.671 113.168 250.563 117.244 250.159 118.482L251.459 118.729C252.311 116.265 252.788 113.687 252.875 111.082Z" fill="#616DF4"/>
<path opacity="0.3" d="M257.868 113.961C257.866 113.433 257.682 112.921 257.347 112.512C257.012 112.104 256.546 111.823 256.028 111.718L255.344 111.588C255.454 112.365 255.852 113.073 256.459 113.571C256.849 113.932 257.317 114.199 257.827 114.351C257.868 114.228 257.868 114.091 257.868 113.961Z" fill="#616DF4"/>
<path d="M212.758 59.8774C213.032 60.917 211.869 62.0046 210.946 61.1085C210.084 60.1845 209.141 59.3398 208.128 58.5846C207.177 57.9895 208.442 56.9498 209.94 57.3534C210.579 57.514 211.17 57.8277 211.661 58.2674C212.152 58.7071 212.528 59.2596 212.758 59.8774Z" fill="white"/>
<path d="M212.834 92.9283C212.355 93.1061 213.23 93.9269 213.23 93.9269C213.23 93.9269 222.806 90.6505 228.62 87.2784C228.634 87.0743 228.6 86.8697 228.519 86.6817C228.438 86.4938 228.313 86.3278 228.155 86.1977C223.179 88.7289 218.064 90.976 212.834 92.9283Z" fill="#616DF4"/>
<path opacity="0.5" d="M212.834 92.9283C212.355 93.1061 213.23 93.9269 213.23 93.9269C213.23 93.9269 222.806 90.6505 228.62 87.2784C228.634 87.0743 228.6 86.8697 228.519 86.6817C228.438 86.4938 228.313 86.3278 228.155 86.1977C223.179 88.7289 218.064 90.976 212.834 92.9283Z" fill="white"/>
<path d="M219.879 64.679C221.767 65.6366 223.538 66.6421 225.351 67.757C226.233 68.3179 227.109 68.8856 227.977 69.5012C228.846 70.1168 229.708 70.7461 230.577 71.4575L230.898 71.7242L231.302 72.0936C231.542 72.3088 231.77 72.5371 231.986 72.7776C232.204 73.017 232.389 73.2496 232.567 73.4616C232.745 73.6736 232.936 73.9267 233.094 74.1456C233.731 75.0249 234.32 75.9383 234.858 76.8816C235.918 78.7109 236.833 80.6205 237.594 82.593C237.735 82.9657 237.742 83.3756 237.615 83.753C237.488 84.1304 237.233 84.4521 236.896 84.6633C236.558 84.8745 236.157 84.9622 235.762 84.9115C235.367 84.8608 235.002 84.6748 234.728 84.3851L234.694 84.344C233.326 82.8871 232.006 81.355 230.679 79.9254C229.352 78.4958 228.005 77.0458 226.89 76.4096C225.337 75.4452 223.607 74.4808 221.89 73.5368L216.719 70.664C215.917 70.2396 215.317 69.5139 215.05 68.6468C214.783 67.7796 214.871 66.842 215.296 66.0402C215.72 65.2384 216.446 64.638 217.313 64.3712C218.18 64.1044 219.118 64.193 219.92 64.6175L219.879 64.679Z" fill="#616DF4"/>
<path opacity="0.8" d="M219.879 64.679C221.767 65.6366 223.538 66.6421 225.351 67.757C226.233 68.3179 227.109 68.8856 227.977 69.5012C228.846 70.1168 229.708 70.7461 230.577 71.4575L230.898 71.7242L231.302 72.0936C231.542 72.3088 231.77 72.5371 231.986 72.7776C232.204 73.017 232.389 73.2496 232.567 73.4616C232.745 73.6736 232.936 73.9267 233.094 74.1456C233.731 75.0249 234.32 75.9383 234.858 76.8816C235.918 78.7109 236.833 80.6205 237.594 82.593C237.735 82.9657 237.742 83.3756 237.615 83.753C237.488 84.1304 237.233 84.4521 236.896 84.6633C236.558 84.8745 236.157 84.9622 235.762 84.9115C235.367 84.8608 235.002 84.6748 234.728 84.3851L234.694 84.344C233.326 82.8871 232.006 81.355 230.679 79.9254C229.352 78.4958 228.005 77.0458 226.89 76.4096C225.337 75.4452 223.607 74.4808 221.89 73.5368L216.719 70.664C215.917 70.2396 215.317 69.5139 215.05 68.6468C214.783 67.7796 214.871 66.842 215.296 66.0402C215.72 65.2384 216.446 64.638 217.313 64.3712C218.18 64.1044 219.118 64.193 219.92 64.6175L219.879 64.679Z" fill="white"/>
<path d="M239.215 86.0062L238.634 84.5492C238.634 84.5492 238.312 82.6888 237.156 82.1689L233.736 82.7093L233.853 83.0102C234.167 83.6942 233.928 84.946 233.62 85.9446C233.312 86.9432 233.832 87.0732 234.27 86.8748C234.516 86.7654 234.756 86.3208 235.016 85.8488C235.143 86.0866 235.287 86.3152 235.446 86.5328L236.288 87.6888C236.464 87.9283 236.723 88.0925 237.015 88.1483C237.307 88.2042 237.609 88.1475 237.861 87.9898L238.791 87.3947C239.009 87.2457 239.17 87.0271 239.247 86.7747C239.324 86.5224 239.313 86.2514 239.215 86.0062Z" fill="#616DF4"/>
<path opacity="0.8" d="M239.215 86.0062L238.634 84.5492C238.634 84.5492 238.312 82.6888 237.156 82.1689L233.736 82.7093L233.853 83.0102C234.167 83.6942 233.928 84.946 233.62 85.9446C233.312 86.9432 233.832 87.0732 234.27 86.8748C234.516 86.7654 234.756 86.3208 235.016 85.8488C235.143 86.0866 235.287 86.3152 235.446 86.5328L236.288 87.6888C236.464 87.9283 236.723 88.0925 237.015 88.1483C237.307 88.2042 237.609 88.1475 237.861 87.9898L238.791 87.3947C239.009 87.2457 239.17 87.0271 239.247 86.7747C239.324 86.5224 239.313 86.2514 239.215 86.0062Z" fill="white"/>
<path opacity="0.3" d="M216.992 72.545L216.158 72.6134L211.035 84.9802C211.315 85.0003 211.596 84.9772 211.869 84.9118C211.869 84.9118 218.545 82.422 220.563 81.4918C219.208 78.6942 216.992 72.545 216.992 72.545Z" fill="#616DF4"/>
<path d="M207.642 75.7872C208.264 79.0199 209.42 82.1266 211.062 84.9802C213.565 84.1183 217.738 82.4904 219.762 81.5602C218.401 78.6429 217.194 75.6566 216.144 72.6135C214.003 72.7571 209.304 74.556 207.642 75.7872Z" fill="white"/>
<path opacity="0.3" d="M212.724 78.4616C212.624 78.7961 212.427 79.0935 212.158 79.316C211.889 79.5385 211.56 79.6762 211.213 79.7118C210.866 79.7473 210.515 79.679 210.207 79.5155C209.899 79.352 209.645 79.1007 209.48 78.7934C209.314 78.4861 209.243 78.1365 209.276 77.789C209.31 77.4414 209.445 77.1115 209.666 76.841C209.886 76.5704 210.182 76.3713 210.516 76.269C210.85 76.1667 211.206 76.1656 211.541 76.266C211.989 76.4005 212.365 76.7073 212.587 77.119C212.809 77.5306 212.858 78.0136 212.724 78.4616Z" fill="#616DF4"/>
<path opacity="0.6" d="M214.03 76.1087C214.004 76.2228 213.943 76.3263 213.857 76.4054C213.77 76.4846 213.662 76.5357 213.546 76.5521C213.43 76.5686 213.311 76.5495 213.206 76.4975C213.101 76.4454 213.014 76.3629 212.957 76.2606C212.9 76.1583 212.875 76.041 212.885 75.9243C212.896 75.8075 212.941 75.6966 213.016 75.6062C213.091 75.5158 213.191 75.4501 213.304 75.4177C213.416 75.3853 213.536 75.3877 213.647 75.4247C213.786 75.469 213.903 75.5643 213.974 75.6912C214.045 75.8182 214.065 75.9674 214.03 76.1087Z" fill="#616DF4"/>
<path opacity="0.6" d="M215.563 75.5136C215.547 75.593 215.514 75.6681 215.467 75.7342C215.421 75.8003 215.361 75.8558 215.291 75.8974C215.222 75.9389 215.144 75.9655 215.064 75.9754C214.983 75.9853 214.902 75.9783 214.824 75.9548C214.747 75.9314 214.675 75.892 214.614 75.8392C214.552 75.7865 214.503 75.7215 214.468 75.6484C214.433 75.5753 214.414 75.4958 214.412 75.4148C214.409 75.3339 214.424 75.2534 214.455 75.1785C214.476 75.1061 214.512 75.0387 214.56 74.9803C214.608 74.9218 214.667 74.8734 214.734 74.8378C214.801 74.8022 214.874 74.7802 214.949 74.7729C215.024 74.7656 215.1 74.7733 215.173 74.7954C215.319 74.8398 215.442 74.94 215.515 75.0745C215.588 75.2089 215.605 75.3667 215.563 75.5136Z" fill="#616DF4"/>
<path opacity="0.5" d="M217.711 80.842L211.384 83.3386L211.007 82.0937L217.327 79.5971L217.711 80.842Z" fill="#616DF4"/>
<path opacity="0.2" d="M182.806 175.904C182.791 179.887 182.406 183.86 181.657 187.772C180.85 191.287 179.596 193.859 177.895 195.487C177.102 196.274 176.162 196.895 175.127 197.314C174.093 197.733 172.985 197.942 171.869 197.929C168.353 197.929 165.669 196.012 163.818 192.177C163.493 191.488 163.216 190.777 162.99 190.049C159.08 193.407 155.44 197.067 152.101 200.993L148.469 205.275C150.424 207.256 152.679 208.916 155.152 210.193C159.411 212.396 165.001 213.499 171.923 213.504C173.141 213.504 174.317 213.47 175.46 213.401C179.647 207.205 183.113 200.549 185.788 193.565L195.945 167.081L182.806 175.904Z" fill="black"/>
<path d="M91.2388 212.04L103.209 224.01L136.725 192.43C125.172 188.018 102.709 200.542 91.2388 212.04Z" fill="#263238"/>
<path d="M132.983 253.764C129.16 249.934 121.013 241.794 121.013 241.794L152.593 208.278C156.978 219.803 144.454 242.286 132.983 253.764Z" fill="#263238"/>
<path d="M178.798 178.319L191.855 153.141L166.677 166.212C158.59 170.406 151.123 175.701 144.488 181.944L101.567 222.348L122.655 243.436L163.059 200.515C169.305 193.879 174.602 186.409 178.798 178.319Z" fill="#616DF4"/>
<path opacity="0.6" d="M178.798 178.319L191.855 153.141L166.677 166.212C158.59 170.406 151.123 175.701 144.488 181.944L101.567 222.348L122.655 243.436L163.059 200.515C169.305 193.879 174.602 186.409 178.798 178.319Z" fill="white"/>
<path d="M151.985 201.835C156.858 201.835 160.808 197.884 160.808 193.011C160.808 188.138 156.858 184.188 151.985 184.188C147.112 184.188 143.161 188.138 143.161 193.011C143.161 197.884 147.112 201.835 151.985 201.835Z" fill="white"/>
<path d="M151.985 198.681C155.116 198.681 157.655 196.143 157.655 193.011C157.655 189.879 155.116 187.341 151.985 187.341C148.853 187.341 146.314 189.879 146.314 193.011C146.314 196.143 148.853 198.681 151.985 198.681Z" fill="#616DF4"/>
<path opacity="0.3" d="M129.789 235.857L109.139 215.207L126.048 199.297L145.699 218.955L129.789 235.857Z" fill="#616DF4"/>
<path d="M95.9105 230.932C80.4521 232.184 75.3289 242.081 73.5779 255.235C72.6887 261.945 72.292 268.737 66.6627 272.663C66.324 272.893 66.069 273.227 65.9359 273.614C65.8028 274.001 65.7987 274.421 65.9243 274.811C66.0498 275.201 66.2983 275.539 66.6324 275.776C66.9665 276.013 67.3683 276.135 67.7776 276.124C88.5301 275.474 98.2087 265.317 99.4263 261.076C99.1067 263.293 98.5353 265.466 97.7231 267.553C97.5738 267.922 97.5446 268.328 97.6396 268.714C97.7346 269.1 97.9489 269.446 98.2521 269.703C98.5553 269.96 98.9319 270.114 99.3282 270.145C99.7245 270.175 100.12 270.08 100.459 269.872C106.28 266.226 113.585 259.51 114.071 248.613C109.789 242.546 95.9105 230.932 95.9105 230.932Z" fill="#616DF4"/>
<path opacity="0.2" d="M95.9105 230.932C80.4521 232.184 75.3289 242.081 73.5779 255.235C72.6887 261.945 72.292 268.737 66.6627 272.663C66.324 272.893 66.069 273.227 65.9359 273.614C65.8028 274.001 65.7987 274.421 65.9243 274.811C66.0498 275.201 66.2983 275.539 66.6324 275.776C66.9665 276.013 67.3683 276.135 67.7776 276.124C88.5301 275.474 98.2087 265.317 99.4263 261.076C99.1067 263.293 98.5353 265.466 97.7231 267.553C97.5738 267.922 97.5446 268.328 97.6396 268.714C97.7346 269.1 97.9489 269.446 98.2521 269.703C98.5553 269.96 98.9319 270.114 99.3282 270.145C99.7245 270.175 100.12 270.08 100.459 269.872C106.28 266.226 113.585 259.51 114.071 248.613C109.789 242.546 95.9105 230.932 95.9105 230.932Z" fill="white"/>
<path d="M116.471 253.285L91.7107 228.524L104.898 225.672L119.324 240.098L116.471 253.285Z" fill="#616DF4"/>
</svg>
