<svg width="12" height="12" viewBox="0 0 12 12" fill="none" xmlns="http://www.w3.org/2000/svg">
<path d="M3.89942 11.0173C3.77855 11.0132 3.65972 10.9846 3.55039 10.9329C3.44099 10.8813 3.3433 10.808 3.26327 10.7172C3.09469 10.5485 3 10.3197 3 10.0811C3 9.84258 3.09469 9.61368 3.26327 9.44492L6.86418 5.844L3.26327 2.24311C3.19207 2.07026 3.17644 1.87953 3.21857 1.69738C3.26069 1.51524 3.35848 1.35073 3.49835 1.22669C3.63824 1.10265 3.81324 1.02524 3.99917 1.00519C4.18498 0.985145 4.37246 1.02347 4.53559 1.11483L8.73665 5.31587C8.9053 5.48475 9 5.71353 9 5.95203C9 6.19065 8.9053 6.41943 8.73665 6.58819L4.53559 10.7172C4.45553 10.808 4.35782 10.8813 4.24847 10.9329C4.13912 10.9846 4.02029 11.0132 3.89942 11.0173Z" fill=""/>
</svg>
