<svg width="24" height="24" viewBox="0 0 24 24" fill="none" xmlns="http://www.w3.org/2000/svg">
<path d="M4.30563 18.2187C3.89812 18.6263 3.89812 19.2869 4.30563 19.6944C4.71313 20.1019 5.37383 20.1019 5.78133 19.6944L4.30563 18.2187ZM12.7378 12.7378C13.1453 12.3303 13.1453 11.6697 12.7378 11.2622C12.3303 10.8547 11.6697 10.8547 11.2622 11.2622L12.7378 12.7378ZM11.2622 11.2622C10.8547 11.6697 10.8547 12.3303 11.2622 12.7378C11.6697 13.1453 12.3303 13.1453 12.7378 12.7378L11.2622 11.2622ZM19.6944 5.78133C20.1019 5.37383 20.1019 4.71313 19.6944 4.30563C19.2869 3.89812 18.6263 3.89812 18.2187 4.30563L19.6944 5.78133ZM12.7378 11.2622C12.3303 10.8547 11.6697 10.8547 11.2622 11.2622C10.8547 11.6697 10.8547 12.3303 11.2622 12.7378L12.7378 11.2622ZM18.2187 19.6944C18.6263 20.1019 19.2869 20.1019 19.6944 19.6944C20.1019 19.2869 20.1019 18.6263 19.6944 18.2187L18.2187 19.6944ZM11.2622 12.7378C11.6697 13.1453 12.3303 13.1453 12.7378 12.7378C13.1453 12.3303 13.1453 11.6697 12.7378 11.2622L11.2622 12.7378ZM5.78133 4.30563C5.37383 3.89812 4.71313 3.89812 4.30563 4.30563C3.89812 4.71313 3.89812 5.37383 4.30563 5.78133L5.78133 4.30563ZM5.78133 19.6944L12.7378 12.7378L11.2622 11.2622L4.30563 18.2187L5.78133 19.6944ZM12.7378 12.7378L19.6944 5.78133L18.2187 4.30563L11.2622 11.2622L12.7378 12.7378ZM11.2622 12.7378L18.2187 19.6944L19.6944 18.2187L12.7378 11.2622L11.2622 12.7378ZM12.7378 11.2622L5.78133 4.30563L4.30563 5.78133L11.2622 12.7378L12.7378 11.2622Z" fill="white"/>
</svg>
