<svg width="16" height="16" viewBox="0 0 16 16" fill="none" xmlns="http://www.w3.org/2000/svg">
<path d="M15.7834 14.6461L11.3595 10.2222C12.3467 8.94813 12.8117 7.34591 12.6598 5.7413C12.5079 4.13668 11.7506 2.65014 10.5419 1.58393C9.33315 0.517707 7.76372 -0.0481467 6.1527 0.00141407C4.54168 0.0509749 3.01 0.71223 1.8691 1.85073C0.728193 2.98923 0.0637091 4.51951 0.0107508 6.13042C-0.0422074 7.74134 0.520335 9.31196 1.584 10.5229C2.64767 11.7339 4.13261 12.4943 5.7369 12.6496C7.34118 12.8049 8.94439 12.3433 10.2205 11.3588L14.6444 15.7835C14.7968 15.9266 14.9989 16.0048 15.2079 16.0015C15.4169 15.9982 15.6165 15.9137 15.7643 15.7659C15.9121 15.6181 15.9966 15.4186 15.9998 15.2096C16.0031 15.0006 15.9249 14.7985 15.7818 14.6461H15.7834ZM3.01238 9.69351C2.35138 9.03269 1.90119 8.1907 1.71875 7.27402C1.53631 6.35733 1.62981 5.40713 1.98743 4.54359C2.34505 3.68005 2.95072 2.94195 3.72785 2.42266C4.50497 1.90336 5.41864 1.62618 6.35331 1.62618C7.28797 1.62618 8.20164 1.90336 8.97877 2.42266C9.75589 2.94195 10.3616 3.68005 10.7192 4.54359C11.0768 5.40713 11.1703 6.35733 10.9879 7.27402C10.8054 8.1907 10.3552 9.03269 9.69424 9.69351C9.25757 10.1359 8.73738 10.4872 8.16386 10.7269C7.59035 10.9667 6.97492 11.0902 6.35331 11.0902C5.73169 11.0902 5.11627 10.9667 4.54275 10.7269C3.96923 10.4872 3.44905 10.1359 3.01238 9.69351Z" fill="#9DA3AE"/>
</svg>
