<svg width="24" height="24" viewBox="0 0 24 24" fill="none" xmlns="http://www.w3.org/2000/svg">
<path d="M8.29 19.936C15.837 19.936 19.965 13.806 19.965 8.48999C19.965 8.31499 19.961 8.14199 19.953 7.96999C20.7537 7.40247 21.4469 6.69676 22 5.88599C21.25 6.21162 20.4562 6.42491 19.644 6.51899C20.4962 6.02169 21.1376 5.23055 21.448 4.29399C20.655 4.75399 19.778 5.08999 18.842 5.26999C18.4545 4.86694 17.9893 4.5466 17.4745 4.32832C16.9598 4.11005 16.4061 3.99835 15.847 3.99999C13.581 3.99999 11.743 5.80199 11.743 8.02299C11.743 8.33799 11.779 8.64499 11.85 8.93999C10.2259 8.86397 8.63526 8.45109 7.17921 7.72753C5.72316 7.00398 4.43346 5.98558 3.392 4.73699C3.02782 5.34856 2.83572 6.0472 2.836 6.75899C2.83761 7.42494 3.00546 8.07995 3.32433 8.6646C3.64319 9.24926 4.10299 9.74504 4.662 10.107C4.01173 10.0878 3.37516 9.91544 2.804 9.60399L2.803 9.65499C2.803 11.604 4.218 13.23 6.095 13.599C5.4903 13.7603 4.85715 13.7842 4.242 13.669C4.764 15.266 6.279 16.429 8.075 16.462C6.61314 17.5831 4.82123 18.1886 2.979 18.184C2.6519 18.1848 2.32502 18.1668 2 18.13C3.88402 19.3141 6.06478 19.9396 8.29 19.936Z" fill=""/>
</svg>
